# xmcd
#
# Track frame offsets:
#	150
#	15288
#	29913
#	43188
#	57139
#	71612
#	86088
#	100262
#	114063
#	129963
#	141138
#	155613
#	168888
#	182237
#
# Disc length: 2605 seconds
#
# Revision: 0
# Processed by: cddbd v1.5.2PL0 Copyright (c) Steve Scherf et al.
# Submitted via: EasyCDDAExtractor 16.0.6.1
#
DISCID=b50a2b0e
DTITLE=Χατζηαντωνίου Γιώργος  - Οι μεγαλύτερες επιτυχίες 1965-70, Γ. Χατζηαντω
DTITLE=νίου
DYEAR=1984
DGENRE=Λαϊκή
TTITLE0=Δεν θέλω την συμπόνια κανενός [Σ. Ατταλίδη-Α. Πάνου]
TTITLE1=Φαρμακωμένα χείλη [Β. Τσιτσάνη]
TTITLE2=Γιατί δεν ήρθες τότε [Α. Πάνου]
TTITLE3=Μετρήστε τις πληγές [Β. Τσιτσάνη]
TTITLE4=Το γλυκοχάραμα [Ι. Καραμπεσίνη]
TTITLE5=Ο Μαθιός [Α. Καλδάρα]
TTITLE6=Τι κι αν ζούσαμε μαζί [Β. Τσιτσάνη]
TTITLE7=Τώρα κλαις, γιατί κλαις [Α. Καλδάρα]
TTITLE8=Γυναίκα δίχως σύνορα [Β. Τσιτσάνη]
TTITLE9=Ρημαγμένη γειτονιά [Ά. Πάνου]
TTITLE10=Φίλησα δυό ξένα χείλια [Β. Τσιτσάνη]
TTITLE11=Ο ζωντοχήρος [Ι. Καραμπεσίνη]
TTITLE12=Ωραία μου τρικαλινή [Ν. Καρανικόλα]
TTITLE13=Δεν έχει τέρμα ο δρόμος μου [Α. Κατινάρη]
EXTD=
EXTT0=
EXTT1=
EXTT2=
EXTT3=
EXTT4=
EXTT5=
EXTT6=
EXTT7=
EXTT8=
EXTT9=
EXTT10=
EXTT11=
EXTT12=
EXTT13=
PLAYORDER=
